<svg xmlns="http://www.w3.org/2000/svg" viewBox="0 0 511 320.82"><defs><style>.cls-1,.cls-2{fill:#fff;}.cls-2{font-size:112.15px;font-family:Arial-BoldMT, Arial;font-weight:700;letter-spacing:0.06em;}.cls-3{letter-spacing:0.02em;}.cls-4{letter-spacing:0.04em;}.cls-5{fill:#c69963;}</style></defs><g id="Layer_2" data-name="Layer 2"><g id="Layer_1-2" data-name="Layer 1"><path class="cls-1" d="M.29,147.09V11.37h65q20.81,0,32.48,9.79t11.68,27.19q0,11.16-5.48,18.54T88.34,76.44q13.81,2.93,20.57,10.88t6.76,21.37q0,19-12.81,28.7t-37.78,9.7ZM46.07,43.62v19H52.5q5.86,0,9-2.46a8.49,8.49,0,0,0,3.12-7.09,8.37,8.37,0,0,0-3.12-7c-2.08-1.6-5.07-2.41-9-2.41Zm0,48.24v21.65H54.2q7.38,0,11.3-2.83a10.14,10.14,0,0,0,0-16q-3.91-2.79-11.3-2.79Z"/><path class="cls-1" d="M165.14,105.1v42h-38.4V11.18h61.47q12.49,0,26.63,11.78T229,57q0,14.46-5.16,25.3T204.58,99.33L232.29,147Zm0,0,24.59,33.67q4,9,21.09,8.32l21.47-.1Zm.94-58.92V72.75h9.56q7,0,10.73-3.4t3.74-9.74q0-6.44-3.74-9.93t-10.73-3.5Z"/><path class="cls-1" d="M378.69,79.56a69.91,69.91,0,0,1-5.16,27,67.19,67.19,0,0,1-15.08,22.31,69.29,69.29,0,0,1-22.84,14.81,76.61,76.61,0,0,1-55.23,0,68.08,68.08,0,0,1-22.84-15,64,64,0,0,1-14.9-22,71.31,71.31,0,0,1-5.06-27.1,72,72,0,0,1,5.06-27.19,63.74,63.74,0,0,1,14.9-22.08,66.86,66.86,0,0,1,22.74-14.85,78.09,78.09,0,0,1,55.57,0,69,69,0,0,1,22.88,14.85,65.76,65.76,0,0,1,14.85,22.18A71,71,0,0,1,378.69,79.56Zm-71,28.47q11.35,0,18.21-7.66T332.73,80q0-12.86-6.86-20.61t-18.21-7.76q-11.25,0-18.16,7.85T282.6,80q0,12.68,6.9,20.34T307.66,108Z"/><path class="cls-1" d="M388.9,147.09V11.37h39.54A160.35,160.35,0,0,1,453,13.45q13.29,2.09,21.61,6.43,17.6,9.27,27,24.59T511,79.28q0,19.48-9.36,34.71t-27.05,24.59Q466,143,452.74,145.05a183.87,183.87,0,0,1-28,2Zm42.75-41.43q21.18-.09,28.8-6.43t7.61-20q0-13.25-7.28-19.72t-27-6.48h-2.08Z"/><text class="cls-2" transform="translate(1.63 278.61)">BAKE<tspan class="cls-3" x="344.68" y="0">R</tspan><tspan class="cls-4" x="428.23" y="0">Y</tspan></text><polygon class="cls-1" points="244.28 159.32 232.14 139.16 371.3 0 384.58 19.29 244.28 159.32"/><rect class="cls-5" y="164.13" width="511" height="17"/><rect class="cls-5" y="301.13" width="511" height="17"/></g></g></svg>